<svg width="96" height="77" viewBox="0 0 96 77" fill="none" xmlns="http://www.w3.org/2000/svg">
<g filter="url(#filter0_dddd_13_131)">
<rect x="2.5" y="11.5" width="46" height="46" rx="8.5" stroke="#EEEEEE"/>
<rect x="16.5" y="4.5" width="46" height="46" rx="8.5" stroke="#EEEEEE"/>
<path d="M8 12L22 5" stroke="#EEEEEE"/>
<path d="M8 57L22 50" stroke="#EEEEEE"/>
<path d="M58.2236 49.9472C58.4706 49.8237 58.5707 49.5234 58.4472 49.2764C58.3237 49.0294 58.0234 48.9293 57.7764 49.0528L58.2236 49.9472ZM44.2236 56.9472L58.2236 49.9472L57.7764 49.0528L43.7764 56.0528L44.2236 56.9472Z" fill="#EEEEEE"/>
<path d="M58.2236 5.94721C58.4706 5.82372 58.5707 5.52338 58.4472 5.27639C58.3237 5.0294 58.0234 4.92929 57.7764 5.05279L58.2236 5.94721ZM44.2236 12.9472L58.2236 5.94721L57.7764 5.05279L43.7764 12.0528L44.2236 12.9472Z" fill="#EEEEEE"/>
</g>
<defs>
<filter id="filter0_dddd_13_131" x="0" y="0" width="96" height="77" filterUnits="userSpaceOnUse" color-interpolation-filters="sRGB">
<feFlood flood-opacity="0" result="BackgroundImageFix"/>
<feColorMatrix in="SourceAlpha" type="matrix" values="0 0 0 0 0 0 0 0 0 0 0 0 0 0 0 0 0 0 127 0" result="hardAlpha"/>
<feOffset dx="1" dy="1"/>
<feGaussianBlur stdDeviation="1.5"/>
<feColorMatrix type="matrix" values="0 0 0 0 0 0 0 0 0 0 0 0 0 0 0 0 0 0 0.1 0"/>
<feBlend mode="normal" in2="BackgroundImageFix" result="effect1_dropShadow_13_131"/>
<feColorMatrix in="SourceAlpha" type="matrix" values="0 0 0 0 0 0 0 0 0 0 0 0 0 0 0 0 0 0 127 0" result="hardAlpha"/>
<feOffset dx="6" dy="2"/>
<feGaussianBlur stdDeviation="3"/>
<feColorMatrix type="matrix" values="0 0 0 0 0 0 0 0 0 0 0 0 0 0 0 0 0 0 0.09 0"/>
<feBlend mode="normal" in2="effect1_dropShadow_13_131" result="effect2_dropShadow_13_131"/>
<feColorMatrix in="SourceAlpha" type="matrix" values="0 0 0 0 0 0 0 0 0 0 0 0 0 0 0 0 0 0 127 0" result="hardAlpha"/>
<feOffset dx="13" dy="5"/>
<feGaussianBlur stdDeviation="4"/>
<feColorMatrix type="matrix" values="0 0 0 0 0 0 0 0 0 0 0 0 0 0 0 0 0 0 0.05 0"/>
<feBlend mode="normal" in2="effect2_dropShadow_13_131" result="effect3_dropShadow_13_131"/>
<feColorMatrix in="SourceAlpha" type="matrix" values="0 0 0 0 0 0 0 0 0 0 0 0 0 0 0 0 0 0 127 0" result="hardAlpha"/>
<feOffset dx="23" dy="9"/>
<feGaussianBlur stdDeviation="5"/>
<feColorMatrix type="matrix" values="0 0 0 0 0 0 0 0 0 0 0 0 0 0 0 0 0 0 0.01 0"/>
<feBlend mode="normal" in2="effect3_dropShadow_13_131" result="effect4_dropShadow_13_131"/>
<feBlend mode="normal" in="SourceGraphic" in2="effect4_dropShadow_13_131" result="shape"/>
</filter>
</defs>
</svg>
