<svg width="63" height="56" viewBox="0 0 63 56" fill="none" xmlns="http://www.w3.org/2000/svg">
<path fill-rule="evenodd" clip-rule="evenodd" d="M10.5797 54.8473H42.4333C45.1669 54.8473 46.2567 51.3828 43.9982 49.8728C42.1821 48.6586 41.3569 46.4446 41.9466 44.3683L44.2241 36.3489C45.8717 30.5475 38.0746 26.8434 34.453 31.7071C31.3496 35.875 25.029 35.9382 21.8396 31.8333L18.06 26.969C12.6048 19.948 1.17552 23.731 1.17552 32.5576V45.6258C1.17552 50.7187 5.3859 54.8473 10.5797 54.8473ZM42.4333 56H10.5797C4.73668 56 0 51.3553 0 45.6258V32.5576C0 22.6276 12.8579 18.3718 18.9951 26.2704L22.7746 31.1347C25.4876 34.6263 30.8639 34.5726 33.5036 31.0274C37.8969 25.1274 47.3551 29.6206 45.3565 36.6582L43.079 44.6775C42.6245 46.278 43.2606 47.9845 44.6604 48.9204C47.8747 51.0694 46.3236 56 42.4333 56Z" fill="#EEEEEE"/>
<path fill-rule="evenodd" clip-rule="evenodd" d="M61.8245 37.7189V10.387C61.8245 3.60037 54.6008 -0.861266 48.3586 2.0699L26.3233 12.4171C23.1854 13.8906 19.4203 12.8898 17.4709 10.064C14.8891 6.32149 8.92611 8.11346 8.92611 12.6318V37.7189C8.92611 42.8118 13.1365 46.9404 18.3303 46.9404H52.4203C57.6141 46.9404 61.8245 42.8118 61.8245 37.7189ZM18.4446 9.41812C15.2133 4.73432 7.75059 6.97699 7.75059 12.6318V37.7189C7.75059 43.4484 12.4873 48.0931 18.3303 48.0931H52.4203C58.2633 48.0931 63 43.4484 63 37.7189V10.387C63 2.75204 54.8734 -2.2673 47.8509 1.03027L25.8156 11.3775C23.2028 12.6044 20.0677 11.771 18.4446 9.41812Z" fill="#EEEEEE"/>
</svg>
