<svg width="63" height="56" viewBox="0 0 63 56" fill="none" xmlns="http://www.w3.org/2000/svg">
<path fill-rule="evenodd" clip-rule="evenodd" d="M39.2459 8.2963H9.29508C4.73194 8.2963 1.03279 12.0107 1.03279 16.5926V46.6667C1.03279 51.2486 4.73194 54.963 9.29508 54.963H39.2459C43.809 54.963 47.5082 51.2486 47.5082 46.6667V16.5926C47.5082 12.0107 43.809 8.2963 39.2459 8.2963ZM9.29508 7.25926C4.16155 7.25926 0 11.4379 0 16.5926V46.6667C0 51.8213 4.16155 56 9.29508 56H39.2459C44.3794 56 48.541 51.8213 48.541 46.6667V16.5926C48.541 11.4379 44.3794 7.25926 39.2459 7.25926H9.29508Z" fill="#EEEEEE"/>
<path fill-rule="evenodd" clip-rule="evenodd" d="M53.7049 1.03704H23.7541C19.191 1.03704 15.4918 4.75141 15.4918 9.33333V39.4074C15.4918 43.9893 19.191 47.7037 23.7541 47.7037H53.7049C58.2681 47.7037 61.9672 43.9893 61.9672 39.4074V9.33333C61.9672 4.75142 58.2681 1.03704 53.7049 1.03704ZM23.7541 0C18.6206 0 14.459 4.17867 14.459 9.33333V39.4074C14.459 44.5621 18.6206 48.7407 23.7541 48.7407H53.7049C58.8385 48.7407 63 44.5621 63 39.4074V9.33333C63 4.17868 58.8385 0 53.7049 0H23.7541Z" fill="#EEEEEE"/>
<path fill-rule="evenodd" clip-rule="evenodd" d="M20.8867 1.50081L6.42766 8.76007L5.96578 7.83252L20.4248 0.57326L20.8867 1.50081Z" fill="#EEEEEE"/>
<path fill-rule="evenodd" clip-rule="evenodd" d="M20.8867 48.1675L6.42766 55.4267L5.96578 54.4992L20.4248 47.2399L20.8867 48.1675Z" fill="#EEEEEE"/>
<path fill-rule="evenodd" clip-rule="evenodd" d="M58.2979 46.9533C58.4255 47.2094 58.3221 47.5209 58.067 47.649L43.608 54.9082L43.1461 53.9807L57.6051 46.7214C57.8602 46.5933 58.1704 46.6972 58.2979 46.9533Z" fill="#EEEEEE"/>
<path fill-rule="evenodd" clip-rule="evenodd" d="M58.2979 1.32367C58.4255 1.5798 58.3221 1.89126 58.067 2.01933L43.608 9.27859L43.1461 8.35104L57.6051 1.09178C57.8602 0.96371 58.1704 1.06753 58.2979 1.32367Z" fill="#EEEEEE"/>
</svg>
